<svg width="15" height="15" viewBox="0 0 15 15" fill="none" xmlns="http://www.w3.org/2000/svg">
<path d="M7.43933 13.5C8.62602 13.5 9.78605 13.1481 10.7727 12.4888C11.7594 11.8295 12.5285 10.8925 12.9826 9.7961C13.4367 8.69974 13.5556 7.49335 13.324 6.32946C13.0925 5.16557 12.5211 4.09648 11.682 3.25736C10.8429 2.41825 9.77376 1.8468 8.60987 1.61529C7.44598 1.38378 6.23959 1.5026 5.14323 1.95673C4.04687 2.41085 3.1098 3.17989 2.45051 4.16658C1.79122 5.15328 1.43933 6.31331 1.43933 7.5C1.43933 8.492 1.67933 9.42733 2.106 10.2513L1.43933 13.5L4.688 12.8333C5.512 13.26 6.448 13.5 7.43933 13.5Z" stroke="#EAEAEA" stroke-width="1.5" stroke-linecap="round" stroke-linejoin="round"/>
</svg>
