<svg width="38" height="33" viewBox="0 0 38 33" fill="none" xmlns="http://www.w3.org/2000/svg">
<path d="M19 31.232L19.8194 32.8019C19.5662 32.9321 19.2852 33 19 33C18.7148 33 18.4338 32.9321 18.1806 32.8019L18.1616 32.7924L18.1189 32.7689C17.8701 32.6415 17.6246 32.5078 17.3826 32.3681C14.4875 30.7338 11.7565 28.8284 9.22688 26.678C4.85688 22.9373 0 17.3249 0 10.6071C0 4.3277 4.95425 0 10.0938 0C13.7679 0 16.9884 1.89042 19 4.76141C21.0116 1.89042 24.2321 0 27.9062 0C33.0458 0 38 4.3277 38 10.6071C38 17.3249 33.1431 22.9373 28.7731 26.678C26.0292 29.0078 23.0492 31.049 19.8811 32.7689L19.8384 32.7924L19.8241 32.7995H19.8194L19 31.232ZM10.0938 3.5357C6.92075 3.5357 3.5625 6.2794 3.5625 10.6071C3.5625 15.6749 7.315 20.3751 11.5544 24.0003C13.8675 25.9636 16.3602 27.7084 19 29.2119C21.6398 27.7084 24.1325 25.9636 26.4456 24.0003C30.685 20.3751 34.4375 15.6749 34.4375 10.6071C34.4375 6.2794 31.0792 3.5357 27.9062 3.5357C24.6454 3.5357 21.7099 5.85983 20.7124 9.32482C20.6073 9.6953 20.3832 10.0216 20.0741 10.2539C19.765 10.4863 19.3878 10.6121 19 10.6121C18.6122 10.6121 18.235 10.4863 17.9259 10.2539C17.6168 10.0216 17.3927 9.6953 17.2876 9.32482C16.2901 5.85983 13.3546 3.5357 10.0938 3.5357Z" fill="white"/>
</svg>
