<svg width="21" height="20" viewBox="0 0 21 20" fill="none" xmlns="http://www.w3.org/2000/svg">
<path d="M10.5 19H20H10.5ZM15.25 1.65321C15.6699 1.23497 16.2395 1 16.8333 1C17.1274 1 17.4186 1.05769 17.6902 1.16976C17.9619 1.28184 18.2087 1.44611 18.4167 1.65321C18.6246 1.8603 18.7895 2.10615 18.9021 2.37673C19.0146 2.64731 19.0725 2.93732 19.0725 3.23019C19.0725 3.52306 19.0146 3.81307 18.9021 4.08364C18.7895 4.35422 18.6246 4.60008 18.4167 4.80717L5.22222 17.9487L1 19L2.05556 14.7947L15.25 1.65321ZM13.6667 3.23019L16.8333 6.38415L13.6667 3.23019Z" fill="white"/>
<path d="M10.5 19H20M13.6667 3.23019L16.8333 6.38415M15.25 1.65321C15.6699 1.23497 16.2395 1 16.8333 1C17.1274 1 17.4186 1.05769 17.6902 1.16976C17.9619 1.28184 18.2087 1.44611 18.4167 1.65321C18.6246 1.8603 18.7895 2.10615 18.9021 2.37673C19.0146 2.64731 19.0725 2.93732 19.0725 3.23019C19.0725 3.52306 19.0146 3.81307 18.9021 4.08364C18.7895 4.35422 18.6246 4.60008 18.4167 4.80717L5.22222 17.9487L1 19L2.05556 14.7947L15.25 1.65321Z" stroke="white" stroke-width="2" stroke-linecap="round" stroke-linejoin="round"/>
</svg>
